<svg width="34" height="36" viewBox="0 0 34 36" fill="none" xmlns="http://www.w3.org/2000/svg">
<g id="svgviewer-output 1" clip-path="url(#clip0_16_7)">
<g id="SVGRepo_iconCarrier">
<g id="Group">
<path id="Vector" d="M16.8748 21.003C18.5095 21.003 19.8477 19.6165 19.8477 17.9074C19.8477 17.2347 19.6367 16.6101 19.2874 16.1022C18.7469 15.3266 17.8701 14.8118 16.8814 14.8118C15.8926 14.8118 15.0159 15.3197 14.4754 16.1022C14.126 16.6101 13.9151 17.2347 13.9151 17.9074C13.9085 19.6165 15.24 21.003 16.8748 21.003Z" fill="#D7A744"/>
<path id="Vector_2" d="M23.3613 14.1322V11.5377V11.1533H22.9922L20.5005 11.1602L20.5137 14.1391L23.3613 14.1322Z" fill="#D7A744"/>
<path id="Vector_3" d="M21.4893 17.9143C21.4893 20.5638 19.4194 22.719 16.875 22.719C14.3306 22.719 12.2607 20.5638 12.2607 17.9143C12.2607 17.276 12.386 16.6651 12.6035 16.1091H10.0854V23.3024C10.0854 24.2291 10.8105 24.9841 11.7004 24.9841H22.0496C22.9395 24.9841 23.6646 24.2291 23.6646 23.3024V16.1091H21.1465C21.3706 16.6651 21.4893 17.276 21.4893 17.9143Z" fill="#D7A744"/>
<path id="Vector_4" d="M16.875 0.342773C7.5542 0.342773 0 8.20873 0 17.9142C0 27.6197 7.5542 35.4856 16.875 35.4856C26.1958 35.4856 33.75 27.6197 33.75 17.9142C33.75 8.20873 26.1958 0.342773 16.875 0.342773ZM25.3125 16.109V23.3023C25.3125 25.1761 23.8491 26.6999 22.0496 26.6999H11.7004C9.90088 26.6999 8.4375 25.1761 8.4375 23.3023V12.5192C8.4375 10.6454 9.90088 9.12162 11.7004 9.12162H22.0496C23.8491 9.12162 25.3125 10.6454 25.3125 12.5192V16.109Z" fill="#D7A744"/>
</g>
</g>
</g>
<defs>
<clipPath id="clip0_16_7">
<rect width="33.75" height="35.1429" fill="white" transform="translate(0 0.342773)"/>
</clipPath>
</defs>
</svg>
